<svg width="175" height="174" viewBox="0 0 175 174" fill="none" xmlns="http://www.w3.org/2000/svg">
<path d="M87.5006 173.824C135.501 173.824 174.413 134.912 174.413 86.9119C174.413 38.9118 135.501 0 87.5006 0C39.5004 0 0.588623 38.9118 0.588623 86.9119C0.588623 134.912 39.5004 173.824 87.5006 173.824Z" fill="#0E1D3A"/>
<path d="M57.3253 53.424C57.3253 53.3638 57.2651 53.3638 57.2651 53.424H57.3253Z" fill="white"/>
<path d="M36.1243 69.0236C37.0278 67.819 38.2324 66.9156 39.5575 66.2531C40.22 65.9519 41.003 66.253 41.3041 66.9758C41.6053 67.6383 41.3041 68.4213 40.6416 68.7225C40.5814 68.7225 37.9915 69.9271 37.5096 72.276C37.088 74.1432 38.1119 76.4319 40.4007 78.9616C40.9428 79.5036 45.0986 78.6604 47.9897 76.5524C48.592 76.1308 49.4352 76.2512 49.8568 76.8535C50.2784 77.4558 50.1579 78.299 49.5556 78.7207C47.5681 80.1662 44.0145 81.7924 41.2439 81.7924C41.1837 81.7924 41.1234 81.7924 41.0632 81.7924C41.4246 83.7198 42.0269 85.9483 42.8099 86.7915C43.1713 87.2131 43.7133 87.5143 44.3156 87.5143C46.5441 87.6347 49.7966 85.346 51.3023 84.0209C52.0853 80.9492 53.1092 77.9377 54.2536 74.9864C56.2412 69.9271 59.1925 65.2291 62.9267 61.254L73.8284 49.6296C73.5272 48.0636 73.0454 46.4976 72.3828 44.9918C72.2021 44.6305 72.2021 44.2691 72.3828 43.9077C72.5033 43.5463 72.8044 43.3054 73.1658 43.1849C75.2136 42.5224 77.6228 41.2576 77.6831 38.9086C77.7433 36.7403 75.7557 34.2709 73.1056 33.3072C71.901 32.8254 71.4192 33.1868 71.2385 33.3072C69.9736 34.2709 69.6725 37.7642 69.8532 39.9325C69.9134 40.3541 69.7327 40.7757 69.3713 41.0769C69.0702 41.378 68.5883 41.4383 68.1667 41.3178C67.7451 41.1973 57.0844 38.6075 52.8683 48.4852C48.9533 57.7606 38.5938 62.8199 34.3174 64.5666C33.8958 64.7473 33.6549 65.1689 33.7151 65.6507C33.8958 66.6144 34.9197 68.5418 36.1243 69.0236ZM72.4431 38.487C72.3828 38.3063 72.2624 38.1858 72.0817 38.1256L73.2261 35.7164C74.0693 36.138 74.6716 36.8608 74.9727 37.704C75.1534 38.3063 75.2739 39.3302 74.5511 40.5348C74.1897 41.1371 73.3465 41.378 72.7442 41.0167C72.1419 40.6553 71.901 39.8121 72.2624 39.2098C72.4431 38.9688 72.5033 38.7279 72.4431 38.487ZM57.2651 50.7137C58.3492 50.7137 59.3129 51.3762 59.7345 52.4001C60.1561 53.424 59.9152 54.5684 59.1322 55.3514C58.3492 56.1344 57.2049 56.3753 56.181 55.9537C55.157 55.5321 54.4945 54.5684 54.4945 53.4843C54.615 51.9183 55.8196 50.7137 57.2651 50.7137ZM43.2315 69.3248C43.6531 68.9032 44.3759 68.7827 44.9179 69.1441C45.46 69.5055 45.6407 70.168 45.3998 70.7703C45.1588 71.3726 44.5565 71.6738 43.894 71.5533C43.2917 71.4328 42.8099 70.8908 42.8099 70.2282C42.8099 69.8668 42.9906 69.5657 43.2315 69.3248ZM43.2315 74.1432C43.6531 73.7216 44.3759 73.6011 44.9179 73.9625C45.46 74.3239 45.6407 74.9864 45.3998 75.5887C45.1588 76.191 44.5565 76.4922 43.894 76.3717C43.2917 76.2512 42.8099 75.7092 42.8099 75.0466C42.8099 74.7455 42.9906 74.3841 43.2315 74.1432ZM41.4246 73.5409C41.003 73.9625 40.2802 74.0829 39.7381 73.7216C39.1961 73.3602 39.0154 72.6977 39.2563 72.0954C39.4972 71.4931 40.0995 71.1919 40.7621 71.3124C41.3644 71.4328 41.8462 71.9749 41.8462 72.6374C41.786 72.9386 41.6655 73.2397 41.4246 73.5409Z" fill="white"/>
<path d="M120.025 89.3814C117.375 97.7533 112.737 105.523 106.292 112.51C105.871 112.931 105.208 113.052 104.726 112.811C104.184 112.51 103.943 111.968 104.064 111.365C104.485 109.438 104.124 106.547 103.281 102.752C102.016 111.847 97.7397 117.87 93.3429 122.628C93.1622 123.532 92.9815 124.435 92.8008 125.339C95.5714 125.459 99.4261 126.965 101.956 132.145C102.197 132.566 102.618 132.867 103.1 132.928C103.582 132.988 104.064 132.747 104.365 132.325L141.105 80.5878C141.406 80.1662 141.467 79.6843 141.286 79.2025C141.105 78.7207 140.684 78.4195 140.202 78.299C135.323 77.2149 127.072 74.0829 122.374 65.2894C122.494 66.3133 122.554 67.3974 122.615 68.4816C123.036 75.5285 122.133 82.6356 120.025 89.3814Z" fill="white"/>
<path d="M55.8798 40.595C57.6265 39.5109 59.5538 38.7279 61.6017 38.4268C63.4086 38.1256 65.2757 38.1256 67.0826 38.3665C67.0826 37.8245 67.1428 37.2222 67.203 36.5596C67.444 33.9095 68.2872 32.0424 69.552 31.0185C70.3952 30.4162 71.8408 29.8139 73.9488 30.6571C77.6831 32.1026 80.3332 35.5357 80.2127 38.8484C80.1525 40.4746 79.4297 43.2452 75.2136 45.0521C76.5387 48.6056 79.2491 58.3629 72.2021 66.0121C71.9612 66.253 71.6601 66.4337 71.2987 66.4337C70.9373 66.4337 70.5759 66.3133 70.335 66.0723C70.0941 65.8314 69.9134 65.4701 69.9134 65.1689C69.9134 64.8075 70.0339 64.4461 70.2748 64.2052C73.5272 60.6517 74.3102 56.4958 74.1897 52.9422L64.7939 62.9404C61.3005 66.6747 58.5299 71.0112 56.6628 75.7694C53.1695 84.7437 48.7727 100.464 55.4582 111.486C55.157 106.969 55.8196 101.969 57.4458 96.609C59.1322 91.0678 61.5414 85.8278 64.5529 80.8889C64.9745 80.2866 65.7575 80.1059 66.3598 80.5276C66.9621 80.9492 67.1428 81.7322 66.7814 82.3345C63.8904 87.0324 61.6017 92.152 59.9754 97.392C56.6026 108.474 57.6265 117.388 62.8665 123.833C65.0348 126.543 67.0224 128.892 68.769 130.94C75.3341 138.77 79.0081 143.227 80.5741 148.467C82.2003 146.66 84.5493 143.046 84.6095 137.385C84.6095 137.324 84.6095 137.324 84.6095 137.264C84.6095 134.735 84.1879 131.723 83.0436 128.35C82.9231 127.989 82.9231 127.627 83.1038 127.326C83.2845 127.025 83.5254 126.784 83.8868 126.664C84.2482 126.543 84.6095 126.604 84.9107 126.724C85.2118 126.905 85.4528 127.146 85.5732 127.507C86.1755 129.314 86.6574 131.181 86.9585 133.048C89.97 127.447 91.4155 121.062 91.1144 114.678C90.8132 107.45 88.0426 100.524 83.4049 95.043C83.164 94.8021 83.0435 94.4407 83.1038 94.0793C83.1038 93.7179 83.2845 93.4168 83.5856 93.1759C83.8265 92.935 84.1879 92.8145 84.5493 92.8747C84.9107 92.935 85.2118 93.0554 85.4528 93.3566C90.5121 99.3193 93.4633 106.788 93.7645 114.618C93.8247 115.762 93.8247 116.846 93.7645 117.991C98.2215 112.329 101.896 104.74 100.751 92.8145C100.39 91.3087 99.9682 89.803 99.5466 88.1768C97.4385 79.865 99.4864 72.9988 99.5466 72.6977C99.7875 71.9749 100.51 71.6135 101.173 71.7942C101.896 72.0351 102.257 72.7579 102.076 73.4204C102.076 73.4806 100.149 79.865 102.076 87.454C102.558 89.4416 103.04 91.3087 103.522 93.0554C105.208 99.4398 106.473 104.258 106.774 107.872C111.713 101.909 115.327 95.4646 117.495 88.5984C119.543 82.1538 120.386 75.3478 119.965 68.602C119.302 57.5197 115.688 49.5091 115.206 48.4852C113.64 45.6544 111.773 43.0645 109.545 40.7757C105.268 36.3789 100.209 33.9697 94.0656 33.3072L97.3783 37.2222C97.8601 37.7642 97.7999 38.6075 97.1976 39.0893C96.6555 39.5711 95.8123 39.5109 95.3305 38.9086L91.9576 34.8732C88.1029 30.2355 82.8026 26.9831 76.9001 25.7182C69.1906 24.092 61.1198 25.8989 54.2536 30.9582C54.1934 31.0185 54.1331 31.0185 54.0729 31.0787C53.049 31.5605 52.3262 32.464 52.0853 33.5481C51.8444 34.6323 52.0853 35.7766 52.8081 36.6199L55.8798 40.595ZM84.8505 39.9927C85.2721 39.3904 86.1153 39.3302 86.7176 39.7518C87.079 40.053 95.993 46.9794 93.7645 61.1937C93.644 61.9165 92.9815 62.3983 92.2587 62.2779C91.536 62.1574 91.0541 61.4949 91.1746 60.7721C93.1622 48.184 85.4528 42.1008 85.1516 41.8599C84.4891 41.378 84.4288 40.5348 84.8505 39.9927Z" fill="white"/>
</svg>
