<svg width="203" height="203" viewBox="0 0 203 203" fill="none" xmlns="http://www.w3.org/2000/svg">
<path d="M101.431 202.972C157.448 202.972 202.858 157.561 202.858 101.545C202.858 45.5278 157.448 0.117188 101.431 0.117188C45.4143 0.117188 0.00366211 45.5278 0.00366211 101.545C0.00366211 157.561 45.4143 202.972 101.431 202.972Z" fill="#127D77"/>
<path d="M135.22 34.9904C130.763 35.0506 126.667 37.3996 124.379 41.1941C121.909 45.2295 119.621 49.3251 117.573 53.6015C116.79 64.3224 114.742 74.8627 111.55 85.1018C114.32 86.3666 116.79 88.2337 118.777 90.5225C130.101 80.0424 139.677 67.8158 146.965 54.2038C149.193 50.1081 149.013 45.1693 146.604 41.1941C144.194 37.2791 139.858 34.9302 135.22 34.9904ZM135.401 43.7237C136.545 43.7237 137.69 44.1453 138.533 44.9886C139.376 45.8318 139.798 46.9159 139.798 48.1205C139.798 49.2649 139.376 50.4093 138.533 51.2525C137.75 52.0957 136.605 52.5173 135.461 52.5173C134.317 52.5173 133.172 52.0355 132.389 51.2525C131.606 50.4093 131.124 49.3251 131.124 48.1205C131.124 45.7113 132.992 43.7237 135.401 43.7237Z" fill="#FFFDFD"/>
<path d="M71.4967 35.1108C68.425 34.9904 65.4135 35.9541 63.0043 37.8212C60.5951 39.6883 58.9086 42.3987 58.2461 45.4102C57.5836 48.4217 58.0654 51.5536 59.4507 54.264C66.7385 67.876 76.3151 80.1027 87.6384 90.5827C89.626 88.2337 92.0954 86.3666 94.866 85.162C91.6738 74.9229 89.626 64.3224 88.843 53.6617C86.7951 49.4456 84.5064 45.2897 82.037 41.2543C79.688 37.5803 75.7731 35.2915 71.4967 35.1108ZM70.7739 43.7237C71.9183 43.6635 73.0627 44.1453 73.9059 44.9283C74.7491 45.7716 75.231 46.8557 75.231 48.0001C75.1708 50.349 73.2434 52.2162 70.8944 52.2162C68.5454 52.2162 66.6181 50.349 66.5578 48.0001C66.5578 45.7113 68.425 43.8442 70.7739 43.7237Z" fill="#FFFDFD"/>
<path d="M47.4047 58.6608C43.55 58.6006 39.9362 60.2268 37.4065 63.1178C34.8769 66.0088 33.7927 69.8636 34.3348 73.6581C34.9371 77.4526 37.1054 80.7652 40.3578 82.813C53.5482 90.9441 67.9432 96.8466 83.0609 100.22C83.603 97.208 84.7473 94.3772 86.494 91.9078C78.5436 84.6199 71.4967 76.4286 65.4737 67.5748C61.5588 64.9247 57.5233 62.4553 53.3675 60.2268C51.5606 59.2029 49.5128 58.6608 47.4047 58.6608ZM47.224 67.2737C48.3684 67.2737 49.5128 67.6953 50.356 68.5385C51.1992 69.3817 51.6208 70.4659 51.6208 71.6705C51.681 72.8148 51.2594 73.9592 50.4162 74.8627C49.573 75.7059 48.4888 76.1877 47.2842 76.1877C46.0796 76.1877 44.9955 75.7059 44.1523 74.8627C43.3091 74.0194 42.8874 72.8751 42.9477 71.6705C42.9477 70.5261 43.3693 69.3817 44.1523 68.5987C44.9955 67.7555 46.0796 67.3339 47.224 67.2737Z" fill="#FFFDFD"/>
<path d="M38.4907 90.9441H38.1895C33.612 91.0645 29.4561 93.5942 27.2276 97.5694C24.9991 101.545 24.9991 106.363 27.2276 110.338C29.4561 114.313 33.612 116.843 38.1895 116.963C53.7289 117.445 69.208 115.277 84.0246 110.639C83.0006 107.809 82.579 104.797 82.8802 101.785C72.3399 99.4365 62.1008 95.883 52.3436 91.185C47.7661 90.8839 43.1284 90.8236 38.4907 90.9441ZM38.5509 99.6172C39.6953 99.6172 40.8396 100.039 41.6828 100.882C42.5261 101.725 42.9477 102.809 42.9477 104.014C42.9477 105.158 42.5261 106.303 41.6828 107.146C40.8999 107.989 39.7555 108.411 38.6111 108.411C37.4667 108.411 36.3224 107.929 35.5394 107.146C34.7564 106.303 34.2746 105.219 34.2746 104.014C34.2746 101.605 36.1417 99.6172 38.5509 99.6172Z" fill="#FFFDFD"/>
<path d="M84.6871 112.205C74.3275 115.458 63.6066 117.506 52.7652 118.349C48.5491 120.397 44.3932 122.685 40.3578 125.155C36.5031 127.564 34.1541 131.78 34.2143 136.358C34.2746 140.935 36.6838 145.091 40.5987 147.44C44.5137 149.789 49.3923 149.849 53.3675 147.741C67.0999 140.393 79.4471 130.756 89.9873 119.252C87.7588 117.325 85.9519 114.916 84.6871 112.205ZM47.224 131.84C48.3684 131.84 49.5128 132.262 50.356 133.105C51.1992 133.948 51.6208 135.032 51.6208 136.237C51.681 137.442 51.2594 138.526 50.4162 139.429C49.573 140.272 48.4888 140.754 47.2842 140.754C46.0796 140.754 44.9955 140.272 44.1523 139.429C43.3091 138.586 42.8874 137.442 42.9477 136.237C42.9477 135.093 43.3693 133.948 44.1523 133.165C44.9955 132.322 46.0796 131.84 47.224 131.84Z" fill="#FFFDFD"/>
<path d="M102.696 26.4377C99.3832 26.5582 96.2513 27.8832 93.9625 30.2322C91.6135 32.5812 90.2885 35.7131 90.168 38.9656C89.6862 54.3845 91.7942 69.7431 96.3717 84.4392C96.7933 84.2586 97.215 84.1381 97.6968 84.0176V67.8158C97.6968 66.4907 98.1786 65.2259 99.0219 64.202C99.8651 63.178 101.07 62.5155 102.395 62.3348V56.9141C102.395 56.4925 102.816 56.1311 103.238 56.1311C103.66 56.1311 104.021 56.4925 104.081 56.9141V62.3348C105.406 62.5155 106.551 63.178 107.454 64.202C108.297 65.2259 108.779 66.4907 108.779 67.8158V84.0176C109.201 84.1381 109.622 84.2586 110.104 84.4392C114.682 69.7431 116.79 54.3845 116.308 38.9656C116.187 35.5325 114.682 32.2198 112.152 29.8708C109.502 27.5821 106.189 26.3173 102.696 26.4377ZM103.117 35.0506C104.262 35.0506 105.406 35.4722 106.249 36.3154C107.093 37.1587 107.514 38.2428 107.514 39.4474C107.514 40.5918 107.093 41.7361 106.249 42.5794C105.466 43.4226 104.322 43.8442 103.178 43.8442C102.033 43.8442 100.889 43.3624 100.106 42.5794C99.323 41.7361 98.8412 40.652 98.8412 39.4474C98.8412 37.0382 100.708 35.1108 103.117 35.0506Z" fill="#FFFDFD"/>
<path d="M159.192 58.6608C157.023 58.6608 154.855 59.1426 152.928 60.1665C148.772 62.3951 144.736 64.8645 140.821 67.5146C134.738 76.4286 127.691 84.5597 119.801 91.8475C121.548 94.317 122.752 97.1478 123.295 100.159C138.412 96.7864 152.807 90.8839 165.998 82.7528C169.19 80.7652 171.418 77.4526 171.96 73.7183C172.563 69.984 171.479 66.1895 169.009 63.2985C166.54 60.4075 162.986 58.721 159.192 58.6608ZM159.011 67.2737C160.155 67.2737 161.3 67.6953 162.143 68.5385C162.986 69.3817 163.408 70.5261 163.408 71.6705C163.408 72.8148 162.986 73.9592 162.143 74.7422C161.36 75.5854 160.216 76.007 159.071 76.007C157.927 76.007 156.782 75.5252 155.999 74.7422C155.216 73.899 154.735 72.8148 154.735 71.6705C154.735 70.5261 155.156 69.3817 155.939 68.5987C156.782 67.7555 157.867 67.3339 159.011 67.2737Z" fill="#FFFDFD"/>
<path d="M121.668 112.205C120.404 114.916 118.597 117.325 116.308 119.252C126.848 130.756 139.195 140.393 152.928 147.741C156.963 149.849 161.782 149.789 165.697 147.44C169.611 145.091 172.021 140.935 172.081 136.358C172.141 131.78 169.792 127.564 165.937 125.155C161.902 122.685 157.806 120.397 153.53 118.349C142.689 117.566 132.028 115.458 121.668 112.205ZM159.011 131.84C160.155 131.84 161.3 132.262 162.143 133.105C162.986 133.948 163.408 135.093 163.408 136.237C163.408 137.381 162.986 138.526 162.143 139.309C161.36 140.152 160.216 140.574 159.071 140.574C157.927 140.574 156.782 140.092 155.999 139.309C155.216 138.466 154.735 137.381 154.735 136.237C154.735 135.093 155.156 133.948 155.939 133.165C156.782 132.322 157.867 131.84 159.011 131.84Z" fill="#FFFDFD"/>
<path d="M167.865 90.9441C163.227 90.8236 158.589 90.8839 154.012 91.2452C144.255 95.9432 134.015 99.4967 123.475 101.846C123.776 104.857 123.355 107.869 122.331 110.7C137.147 115.337 152.627 117.506 168.166 117.024C172.743 116.903 176.899 114.374 179.128 110.398C181.356 106.423 181.356 101.605 179.128 97.6296C176.899 93.6544 172.743 91.1248 168.166 91.0043L167.865 90.9441ZM167.624 99.6172C168.768 99.557 169.913 100.039 170.756 100.822C171.599 101.665 172.081 102.749 172.081 103.954C172.081 105.098 171.599 106.182 170.816 107.026C170.033 107.809 168.889 108.29 167.744 108.29C166.6 108.29 165.516 107.809 164.673 107.026C163.829 106.243 163.408 105.098 163.408 103.954C163.408 101.605 165.275 99.7377 167.624 99.6172Z" fill="#FFFDFD"/>
<path d="M107.032 67.876C107.032 66.8521 106.671 65.8884 105.948 65.1054C105.226 64.3826 104.262 63.961 103.238 63.961C102.214 63.961 101.25 64.3826 100.528 65.1054C99.8048 65.8282 99.3832 66.8521 99.4435 67.876C99.4435 68.8999 99.8048 69.8636 100.528 70.6466C101.25 71.3693 102.214 71.7909 103.238 71.7909C104.262 71.7909 105.226 71.3693 105.948 70.6466C106.611 69.9238 107.032 68.8999 107.032 67.876Z" fill="#FFFDFD"/>
<path d="M90.1078 117.024V115.157C90.1078 114.193 90.2885 113.289 90.6499 112.386L97.2752 95.7625C97.5763 95.1 97.6968 94.3772 97.6968 93.5942V85.8245C91.3726 87.7519 86.6145 92.8714 85.0485 99.3161C83.4825 105.7 85.4099 112.446 90.1078 117.024Z" fill="#FFFDFD"/>
<path d="M107.032 71.8512C106.009 72.8751 104.623 73.4171 103.178 73.4171C101.732 73.4171 100.347 72.8751 99.323 71.8512V93.6544C99.323 94.6181 99.1423 95.5216 98.7809 96.425L92.1556 113.049C91.8545 113.711 91.734 114.434 91.734 115.217V119.794C91.734 120.878 92.0352 122.023 92.6375 122.926C93.2398 123.89 94.083 124.613 95.1069 125.095V145.633H90.8306C90.3487 145.633 89.9873 145.994 89.9873 146.476C89.9873 146.958 90.3487 147.319 90.8306 147.319H97.9377C98.4195 147.319 98.7809 146.958 98.7809 146.476C98.7809 145.994 98.4195 145.633 97.9377 145.633H96.7331V125.637H108.659C108.9 125.637 109.201 125.637 109.442 125.576V145.633H108.237C107.755 145.633 107.394 145.994 107.394 146.476C107.394 146.958 107.755 147.319 108.237 147.319H115.404C115.886 147.319 116.248 146.958 116.248 146.476C116.248 145.994 115.886 145.633 115.404 145.633H111.188V125.095C112.212 124.613 113.055 123.89 113.658 122.926C114.26 121.963 114.561 120.878 114.561 119.794V115.217C114.561 114.494 114.441 113.771 114.14 113.049L107.514 96.425C107.153 95.5216 106.972 94.6181 106.972 93.6544L107.032 71.8512Z" fill="#FFFDFD"/>
<path d="M109.08 95.7625L115.706 112.386C116.067 113.289 116.248 114.193 116.248 115.157V117.024C120.946 112.446 122.933 105.64 121.367 99.2558C119.801 92.8714 114.983 87.7519 108.719 85.7643V93.534C108.659 94.3772 108.839 95.1 109.08 95.7625Z" fill="#FFFDFD"/>
</svg>
