<svg width="174" height="175" viewBox="0 0 174 175" fill="none" xmlns="http://www.w3.org/2000/svg">
<path d="M86.9614 174.273C134.962 174.273 173.873 135.361 173.873 87.3612C173.873 39.361 134.962 0.449219 86.9614 0.449219C38.9612 0.449219 0.0494385 39.361 0.0494385 87.3612C0.0494385 135.361 38.9612 174.273 86.9614 174.273Z" fill="#0E1D3A"/>
<path d="M50.6427 102.539C54.0156 103.262 57.2077 102.84 60.159 101.214L72.6869 133.136L72.1448 135.184C71.3618 138.015 71.9641 141.086 73.771 143.435C75.9995 146.326 81.9623 151.747 88.3467 151.747H88.4069C94.7311 151.747 100.694 146.326 102.922 143.435C104.729 141.147 105.332 138.015 104.549 135.184L104.006 133.136L116.534 101.214C119.486 102.78 122.678 103.262 126.051 102.539C137.374 100.13 148.276 84.3497 152.913 75.4356C154.66 72.0627 154.479 68.991 152.431 67.2443C151.287 66.2807 149.842 66.0397 148.757 65.9795C143.096 65.4977 137.133 66.883 129.966 70.1956C126.111 72.0025 122.256 73.9299 118.522 75.797C116.293 76.8811 114.125 78.0255 111.897 79.1097C110.752 75.9777 110.029 73.1469 109.548 70.4365C108.644 64.7749 109.487 58.3905 112.077 51.4038C112.258 50.922 112.439 50.4402 112.68 49.8981C114.246 45.8627 116.414 40.2613 113.463 35.9849C112.499 34.5394 110.933 33.4553 108.945 32.7928C105.332 31.5882 101.477 32.3109 99.1279 34.7201C97.6823 36.1656 96.7789 38.2135 96.538 40.6227C96.3573 42.2489 96.4175 43.8751 96.4777 45.3808L96.538 46.1036C96.8993 53.3914 95.5743 58.0291 92.3219 60.7395C91.6593 61.2816 90.9968 61.8236 90.3945 62.2452C89.1899 63.1487 87.6239 63.1487 86.4193 62.2452C85.817 61.7634 85.1545 61.2816 84.4317 60.7395C81.1793 58.0291 79.8542 53.3914 80.2156 46.1036L80.2758 45.2001C80.3361 43.6944 80.4565 42.1886 80.2156 40.6227C79.9145 38.2135 79.011 36.1656 77.5655 34.7201C75.2165 32.3109 71.3618 31.5882 67.748 32.7928C65.8206 33.4553 64.2547 34.5394 63.2307 35.9849C60.2192 40.3215 62.3875 45.8627 64.0137 49.9583C64.1944 50.5004 64.4353 50.9822 64.5558 51.4038C67.1457 58.3905 67.9889 64.8351 67.0252 70.4365C66.6036 73.1469 65.8206 75.9777 64.7365 79.1097C62.5682 78.0255 60.3999 76.9414 58.2317 75.8572C54.4372 73.9901 50.5824 72.0025 46.6675 70.1956C46.4266 70.0751 46.2459 70.0149 46.005 69.8945C45.9447 69.8945 45.8845 69.8342 45.8243 69.8342C39.0183 66.7625 33.2964 65.5579 27.8757 65.9795C26.7916 66.0397 25.3461 66.2807 24.2017 67.2443C22.1539 68.991 21.9732 72.0025 23.7198 75.3754C28.4178 84.3497 39.2592 100.13 50.6427 102.539ZM101.898 141.809C99.429 144.941 93.6469 149.88 88.4069 149.88H88.2864C83.0464 149.88 77.2644 144.941 74.7949 141.809C73.6506 140.303 73.2289 138.316 73.7108 136.509L76.662 125.667C77.3848 123.078 79.7338 121.271 82.3839 121.271C83.0464 121.271 83.7692 121.391 84.4317 121.632C86.9012 122.536 89.6717 122.536 92.1412 121.632C92.8037 121.391 93.4662 121.271 94.189 121.271C96.8391 121.271 99.1881 123.078 99.9109 125.667L102.862 136.509C103.464 138.316 103.043 140.303 101.898 141.809ZM150.504 66.9432C151.468 67.0034 152.251 67.8466 152.371 67.9069C152.612 68.0876 153.395 72.3037 152.431 74.0503C147.734 83.0246 137.193 99.106 125.75 101.515C122.798 102.118 117.98 100.732 115.45 99.2265C115.691 97.6003 115.751 95.9741 115.51 94.3479C123.762 90.9147 131.411 82.4825 132.977 74.8333L133.399 69.6535C139.964 66.883 144.059 66.4613 149.179 66.883L150.504 66.9432ZM25.4063 67.2443C25.4665 67.1841 27.0325 67.1841 28.0564 67.1239C33.0555 66.7023 36.7295 67.2443 43.2344 70.0149L43.9571 75.1947C45.5231 82.603 52.9314 90.734 60.8818 94.1069C60.6409 95.6127 60.7011 97.1787 60.942 98.6242C58.4123 100.25 55.0395 102.238 52.0882 101.636C41.0059 99.2867 29.1405 82.2416 24.6835 73.5685C23.7801 71.8218 23.7198 69.8945 23.9608 69.6535L25.4063 67.2443Z" fill="white"/>
<path d="M81.4805 129.462L84.0703 131.209C84.4317 131.45 84.8533 131.57 85.2749 131.57C85.9977 131.57 86.6602 131.209 87.0818 130.606C87.7444 129.582 87.4432 128.257 86.4795 127.595L83.8897 125.848C82.8657 125.186 81.5407 125.487 80.8782 126.45C80.1554 127.414 80.4565 128.799 81.4805 129.462Z" fill="white"/>
<path d="M91.4786 131.57C91.9003 131.57 92.3219 131.45 92.6832 131.209L95.2731 129.462C96.2971 128.799 96.538 127.414 95.8754 126.45C95.2129 125.427 93.8276 125.186 92.8639 125.848L90.274 127.595C89.2501 128.257 89.0092 129.643 89.6717 130.606C90.0331 131.209 90.7559 131.57 91.4786 131.57Z" fill="white"/>
<path d="M95.0925 136.991C93.1049 139.159 90.9366 140.544 88.6478 141.147C88.5876 141.147 88.4671 141.147 88.3467 141.147C86.0579 140.605 83.8896 139.219 81.9021 136.991C81.0588 136.087 79.6736 136.027 78.8303 136.87C77.9269 137.713 77.8667 139.099 78.7099 139.942C81.2998 142.773 84.1908 144.58 87.3228 145.363C87.6841 145.483 88.1058 145.483 88.5274 145.483C88.949 145.483 89.3104 145.423 89.732 145.363C92.8639 144.58 95.755 142.773 98.3449 139.942C99.1881 139.039 99.0676 137.653 98.2244 136.87C97.321 136.027 95.9357 136.087 95.0925 136.991Z" fill="white"/>
<path d="M70.7595 99.1663C72.4227 99.1663 73.771 97.818 73.771 96.1548C73.771 94.4916 72.4227 93.1433 70.7595 93.1433C69.0963 93.1433 67.748 94.4916 67.748 96.1548C67.748 97.818 69.0963 99.1663 70.7595 99.1663Z" fill="#0E1D3A"/>
<path d="M109.548 97.9617C111.211 97.9617 112.559 96.6134 112.559 94.9502C112.559 93.2869 111.211 91.9387 109.548 91.9387C107.884 91.9387 106.536 93.2869 106.536 94.9502C106.536 96.6134 107.884 97.9617 109.548 97.9617Z" fill="#0E1D3A"/>
</svg>
