<svg width="56" height="58" viewBox="0 0 56 58" fill="none" xmlns="http://www.w3.org/2000/svg">
<path fill-rule="evenodd" clip-rule="evenodd" d="M0.857056 56.4921C0.857056 56.115 1.16276 55.8093 1.53988 55.8093H55.0259C55.403 55.8093 55.7087 56.115 55.7087 56.4921C55.7087 56.8692 55.403 57.1749 55.0259 57.1749H1.53988C1.16276 57.1749 0.857056 56.8692 0.857056 56.4921Z" fill="#127D77"/>
<path fill-rule="evenodd" clip-rule="evenodd" d="M21.0419 0.310976C21.203 0.440587 21.2967 0.636247 21.2967 0.843051V56.4921C21.2967 56.8692 20.991 57.1749 20.6139 57.1749C20.2368 57.1749 19.9311 56.8692 19.9311 56.4921V1.69202L13.2345 3.162V56.4921C13.2345 56.8692 12.9288 57.1749 12.5517 57.1749C12.1746 57.1749 11.8689 56.8692 11.8689 56.4921V2.61281C11.8689 2.29211 12.0921 2.01463 12.4053 1.94587L20.4675 0.176111C20.6695 0.131771 20.8807 0.181365 21.0419 0.310976Z" fill="#127D77"/>
<path fill-rule="evenodd" clip-rule="evenodd" d="M20.0442 0.466642C20.2521 0.152005 20.6757 0.0654654 20.9903 0.27335L32.0022 7.54902C32.1935 7.67542 32.3086 7.88942 32.3086 8.11872V56.4921C32.3086 56.8692 32.0029 57.1749 31.6257 57.1749C31.2486 57.1749 30.9429 56.8692 30.9429 56.4921V8.48597L20.2375 1.41275C19.9229 1.20487 19.8363 0.781279 20.0442 0.466642Z" fill="#127D77"/>
<path fill-rule="evenodd" clip-rule="evenodd" d="M37.1537 15.4423C37.3223 15.5716 37.4212 15.7719 37.4212 15.9843V56.4921C37.4212 56.8692 37.1155 57.1749 36.7384 57.1749C36.3613 57.1749 36.0556 56.8692 36.0556 56.4921V16.8753L31.8033 18.0201C31.4391 18.1182 31.0644 17.9024 30.9664 17.5383C30.8684 17.1742 31.0841 16.7995 31.4482 16.7014L36.5609 15.325C36.766 15.2697 36.9851 15.3131 37.1537 15.4423Z" fill="#127D77"/>
<path fill-rule="evenodd" clip-rule="evenodd" d="M36.164 15.6151C36.3679 15.2978 36.7904 15.206 37.1076 15.4099L45.3665 20.7192C45.5619 20.8448 45.6801 21.0612 45.6801 21.2936V56.4921C45.6801 56.8692 45.3744 57.1749 44.9972 57.1749C44.6201 57.1749 44.3144 56.8692 44.3144 56.4921V21.6664L36.3691 16.5587C36.0519 16.3548 35.9601 15.9323 36.164 15.6151Z" fill="#127D77"/>
<path d="M29.4686 10.4051L22.4118 6.30513V7.45387L29.4686 11.5538V10.4051Z" fill="#127D77"/>
<path d="M29.4686 15.6569L22.4118 11.5569V12.7057L29.4686 16.8056V15.6569Z" fill="#127D77"/>
<path d="M29.4686 20.9088L22.4118 16.8088V17.9576L29.4686 22.0575V20.9088Z" fill="#127D77"/>
<path d="M29.4686 26.1604L22.4118 22.0605V23.2092L29.4686 27.3092V26.1604Z" fill="#127D77"/>
<path d="M29.4686 31.4123L22.4118 27.3123V28.4611L29.4686 32.561V31.4123Z" fill="#127D77"/>
<path d="M29.4686 36.6641L22.4118 32.5642V33.7129L29.4686 37.8129V36.6641Z" fill="#127D77"/>
<path d="M29.4686 41.9158L22.4118 37.8158V38.9646L29.4686 43.0645V41.9158Z" fill="#127D77"/>
<path d="M29.4686 47.1676L22.4118 43.0677V44.2164L29.4686 48.3164V47.1676Z" fill="#127D77"/>
<path d="M29.4686 52.4195L22.4118 48.3195V49.4683L29.4686 53.5682V52.4195Z" fill="#127D77"/>
<path fill-rule="evenodd" clip-rule="evenodd" d="M6.49625 45.5206C6.14965 45.8673 5.95885 46.2923 5.95885 46.6601C5.95885 47.1145 6.11252 47.5141 6.34877 47.7504C6.49745 47.8991 6.56934 48.108 6.54365 48.3166C6.51796 48.5253 6.39756 48.7105 6.21726 48.8187C5.43103 49.2905 4.97565 50.0561 4.97565 50.9862C4.97565 52.3788 6.04642 53.4496 7.43907 53.4496C8.83171 53.4496 9.90248 52.3788 9.90248 50.9862C9.90248 50.1696 9.5751 49.4106 8.99577 48.9761C8.83742 48.8573 8.73839 48.6757 8.72436 48.4783C8.71033 48.2808 8.78267 48.087 8.92264 47.947C9.1427 47.727 9.31256 47.3414 9.31256 46.6601C9.31256 45.8201 8.59883 44.9832 7.63571 44.9832C7.26786 44.9832 6.84286 45.174 6.49625 45.5206ZM5.5306 44.555C6.06887 44.0167 6.82371 43.6176 7.63571 43.6176C9.42554 43.6176 10.6782 45.1404 10.6782 46.6601C10.6782 47.2824 10.5694 47.8572 10.3112 48.3402C10.9628 49.0726 11.2681 50.0486 11.2681 50.9862C11.2681 53.133 9.58593 54.8152 7.43907 54.8152C5.2922 54.8152 3.61001 53.133 3.61001 50.9862C3.61001 49.8143 4.09674 48.7963 4.9222 48.0773C4.6962 47.6348 4.59321 47.1357 4.59321 46.6601C4.59321 45.8481 4.99233 45.0933 5.5306 44.555Z" fill="#127D77"/>
<path fill-rule="evenodd" clip-rule="evenodd" d="M7.43906 50.3033C7.81618 50.3033 8.12188 50.6091 8.12188 50.9862V56.4921C8.12188 56.8692 7.81618 57.1749 7.43906 57.1749C7.06195 57.1749 6.75625 56.8692 6.75625 56.4921V50.9862C6.75625 50.6091 7.06195 50.3033 7.43906 50.3033Z" fill="#127D77"/>
<path fill-rule="evenodd" clip-rule="evenodd" d="M50.3065 45.1799C49.4665 45.1799 48.6297 45.8936 48.6297 46.8567C48.6297 47.072 48.6647 47.2209 48.7183 47.3414C48.7732 47.4649 48.8633 47.5941 49.0196 47.7504C49.1683 47.8991 49.2402 48.108 49.2145 48.3166C49.1888 48.5253 49.0684 48.7105 48.8881 48.8187C48.139 49.2682 47.6465 50.2076 47.6465 51.1828C47.6465 52.5755 48.7172 53.6462 50.1099 53.6462C51.5025 53.6462 52.5733 52.5755 52.5733 51.1828C52.5733 50.1473 52.2317 49.3999 51.6666 48.9761C51.5082 48.8573 51.4092 48.6757 51.3952 48.4783C51.3811 48.2808 51.4535 48.087 51.5934 47.947C51.8297 47.7108 51.9834 47.3111 51.9834 46.8567C51.9834 45.8574 51.3059 45.1799 50.3065 45.1799ZM47.264 46.8567C47.264 45.0669 48.7869 43.8142 50.3065 43.8142C52.0601 43.8142 53.349 45.1031 53.349 46.8567C53.349 47.3572 53.235 47.8838 52.9835 48.343C53.6419 49.0893 53.9389 50.1009 53.9389 51.1828C53.9389 53.3297 52.2567 55.0119 50.1099 55.0119C47.963 55.0119 46.2808 53.3297 46.2808 51.1828C46.2808 50.0488 46.7419 48.8908 47.5777 48.1076C47.5388 48.0397 47.5029 47.9693 47.4703 47.896C47.3273 47.5741 47.264 47.2314 47.264 46.8567Z" fill="#127D77"/>
<path fill-rule="evenodd" clip-rule="evenodd" d="M50.1099 50.3033C50.487 50.3033 50.7927 50.6091 50.7927 50.9862V56.4921C50.7927 56.8692 50.487 57.1749 50.1099 57.1749C49.7328 57.1749 49.4271 56.8692 49.4271 56.4921V50.9862C49.4271 50.6091 49.7328 50.3033 50.1099 50.3033Z" fill="#127D77"/>
<path d="M43.4221 23.4249L38.3082 19.7271V20.7632L43.4221 24.4609V23.4249Z" fill="#127D77"/>
<path d="M43.4221 28.1614L38.3082 24.4636V25.4996L43.4221 29.1974V28.1614Z" fill="#127D77"/>
<path d="M43.4221 32.898L38.3082 29.2003V30.2363L43.4221 33.934V32.898Z" fill="#127D77"/>
<path d="M43.4221 37.6345L38.3082 33.9367V34.9728L43.4221 38.6705V37.6345Z" fill="#127D77"/>
<path d="M43.4221 42.3711L38.3082 38.6734V39.7094L43.4221 43.4072V42.3711Z" fill="#127D77"/>
<path d="M43.4221 47.1078L38.3082 43.41V44.4461L43.4221 48.1438V47.1078Z" fill="#127D77"/>
<path d="M43.4221 51.8442L38.3082 48.1465V49.1825L43.4221 52.8803V51.8442Z" fill="#127D77"/>
<path fill-rule="evenodd" clip-rule="evenodd" d="M20.6139 56.4921V0.843051L12.5517 2.61281V56.4921H20.6139Z" fill="#127D77"/>
<path fill-rule="evenodd" clip-rule="evenodd" d="M31.6257 17.3608V56.4921H36.7384V15.9843L31.6257 17.3608Z" fill="#127D77"/>
</svg>
