<svg width="31" height="62" viewBox="0 0 31 62" fill="none" xmlns="http://www.w3.org/2000/svg">
<path d="M30.4953 12.7113H25.0948V0.367188L21.9059 2.73315L19.7456 1.1387L17.534 2.73315L15.3738 1.1387L13.2135 2.73315L11.0019 1.1387L8.84166 2.73315L5.65276 0.367188V12.7113H0.252197V61.4137H30.4953V12.7113ZM7.71011 4.4819L8.84166 5.35628L11.0019 3.76182L13.1621 5.35628L15.3738 3.71039L17.534 5.30484L19.6942 3.71039L21.8544 5.30484L22.986 4.43046V16.8775H7.71011V4.4819ZM28.438 59.3563H2.30955V14.7687H5.65276V18.9348H25.0948V14.7687H28.438V59.3563Z" fill="#127D77"/>
<path d="M9.81888 55.0619H5.7556V57.1193H9.81888V55.0619Z" fill="#127D77"/>
<path d="M17.2768 55.0619H13.2135V57.1193H17.2768V55.0619Z" fill="#127D77"/>
<path d="M24.7862 55.0619H20.7229V57.1193H24.7862V55.0619Z" fill="#127D77"/>
<path d="M5.7556 52.7172H24.9919V20.4967H5.7556V52.7172ZM6.81353 21.4919H23.8317V51.6042H6.81353V21.4919Z" fill="#127D77"/>
</svg>
